{
    "asset" : {
        "generator" : "Khronos glTF Blender I/O v0.9.16",
        "version" : "2.0"
    },
    "scene" : 0,
    "scenes" : [
        {
            "name" : "Scene",
            "nodes" : [
                0
            ]
        }
    ],
    "nodes" : [
        {
            "mesh" : 0,
            "name" : "Star",
            "rotation" : [
                -0.5,
                0.5,
                -0.4999999701976776,
                0.5
            ]
        }
    ],
    "materials" : [
        {
            "doubleSided" : true,
            "name" : "Material.001",
            "pbrMetallicRoughness" : {
                "baseColorFactor" : [
                    1,
                    0.5980498194694519,
                    0.1106177270412445,
                    1
                ],
                "metallicFactor" : 0.7083333134651184,
                "roughnessFactor" : 0.019999999552965164
            }
        }
    ],
    "meshes" : [
        {
            "name" : "Star",
            "primitives" : [
                {
                    "attributes" : {
                        "POSITION" : 0,
                        "NORMAL" : 1
                    },
                    "indices" : 2,
                    "material" : 0
                }
            ]
        }
    ],
    "accessors" : [
        {
            "bufferView" : 0,
            "componentType" : 5126,
            "count" : 580,
            "max" : [
                0.7638980150222778,
                0.2724685072898865,
                0.8980159163475037
            ],
            "min" : [
                -0.9442297220230103,
                -0.2960231304168701,
                -0.8980158567428589
            ],
            "type" : "VEC3"
        },
        {
            "bufferView" : 1,
            "componentType" : 5126,
            "count" : 580,
            "type" : "VEC3"
        },
        {
            "bufferView" : 2,
            "componentType" : 5123,
            "count" : 840,
            "type" : "SCALAR"
        }
    ],
    "bufferViews" : [
        {
            "buffer" : 0,
            "byteLength" : 6960,
            "byteOffset" : 0
        },
        {
            "buffer" : 0,
            "byteLength" : 6960,
            "byteOffset" : 6960
        },
        {
            "buffer" : 0,
            "byteLength" : 1680,
            "byteOffset" : 13920
        }
    ],
    "buffers" : [
        {
            "byteLength" : 15600,
            "uri" : "data:application/octet-stream;base64,"
        }
    ]
}
